# xmcd CD database file
#
# Track frame offsets:
#	182
#	14767
#	24742
#	38840
#	66017
#	90700
#	126812
#	145692
#	170025
#	194457
#	219565
#	239297
#	278710
#
# Disc length: 4324 seconds
#
# Revision: 0
# Processed by: cddbd v1.4PL0 Copyright (c) Steve Scherf et al.
# Submitted via: CDex 1.51
#
DISCID=be10e20d
DTITLE=Jimmy Jazz - Rollercoaster
DYEAR=1997
DGENRE=Jazz
TTITLE0=Rollercoaster
TTITLE1=The girl with multicoloured hair
TTITLE2=A song without a title
TTITLE3=Life's too short
TTITLE4=In love with everything
TTITLE5=Return of teh brown shirts
TTITLE6=Still a bitch
TTITLE7=No
TTITLE8=Dead man walking
TTITLE9=Temple of white stone
TTITLE10=Jimmy's blues...not!
TTITLE11=In god's defence
TTITLE12=legs 11 (instrumental)
EXTD=YEAR: 1997
EXTT0=
EXTT1=
EXTT2=
EXTT3=
EXTT4=
EXTT5=
EXTT6=
EXTT7=
EXTT8=
EXTT9=
EXTT10=
EXTT11=
EXTT12=
PLAYORDER=
